<?xml version="1.0" encoding="UTF-8" standalone="no"?>
<svg width="21px" height="43px" viewBox="0 0 21 43" version="1.1" xmlns="http://www.w3.org/2000/svg" xmlns:xlink="http://www.w3.org/1999/xlink" xmlns:sketch="http://www.bohemiancoding.com/sketch/ns">
    <!-- Generator: Sketch 3.0.3 (7892) - http://www.bohemiancoding.com/sketch -->
    <title>Rectangle 1</title>
    <desc>Created with Sketch.</desc>
    <defs></defs>
    <g id="Welcome" stroke="none" stroke-width="1" fill="none" fill-rule="evenodd" sketch:type="MSPage">
        <g id="Desktop-HD-2" sketch:type="MSArtboardGroup" transform="translate(-87.000000, -2111.000000)" fill="#FFFFFF">
            <g id="Footer" sketch:type="MSLayerGroup" transform="translate(-3.000000, 2038.000000)">
                <g id="Sinistra" transform="translate(89.000000, 59.000000)" sketch:type="MSShapeGroup">
                    <g id="Social" transform="translate(1.000000, 0.000000)">
                        <path d="M18.1220872,28 L21,28 L19.5147611,36 L14,36 L14,56.9999985 L5,57 L5,36 L0,36 L0,28 L5,28 L5,22 L5.01640228,22 L5.01640228,22 C5.00552468,21.8347382 5,21.6680143 5,21.5 C5,17.5237266 8.09433261,14.2701733 12.0063511,14.0159869 L12,14 L20,14 L20,21 L19.9917989,21 L16,21 C14.8954305,21 14,21.8954305 14,23 L14,28 L18.1220872,28 Z" id="Rectangle-1"></path>
                    </g>
                </g>
            </g>
        </g>
    </g>
</svg>