<?xml version="1.0" encoding="UTF-8" standalone="no"?>
<svg width="61px" height="60px" viewBox="0 0 61 60" version="1.1" xmlns="http://www.w3.org/2000/svg" xmlns:xlink="http://www.w3.org/1999/xlink" xmlns:sketch="http://www.bohemiancoding.com/sketch/ns">
    <!-- Generator: Sketch 3.0.4 (8054) - http://www.bohemiancoding.com/sketch -->
    <title>Artboard</title>
    <desc>Created with Sketch.</desc>
    <defs></defs>
    <g id="Page-1" stroke="none" stroke-width="1" fill="none" fill-rule="evenodd" sketch:type="MSPage">
        <g id="Artboard" sketch:type="MSArtboardGroup" transform="translate(0.500000, 0.000000)">
            <g id="icon_15266" sketch:type="MSLayerGroup" transform="translate(-0.500000, 0.000000)">
                <g id="Your_Icon" sketch:type="MSShapeGroup">
                    <path d="M35.25,18 C32.836,18 30.672,19.068 29.188,20.75 L41.312,20.75 C39.827,19.068 37.663,18 35.25,18 L35.25,18 Z" id="Shape"></path>
                    <path d="M48.341,26.092 C48.341,33.311 42.469,39.183 35.25,39.183 C28.031,39.183 22.158,33.311 22.158,26.092 C22.158,24.189 22.576,22.384 23.309,20.75 L16.5,20.75 L16.5,45 L54,45 L54,20.75 L47.189,20.75 C47.923,22.384 48.341,24.188 48.341,26.092 L48.341,26.092 Z" id="Shape"></path>
                    <path d="M27.158,26.092 C27.158,30.553 30.788,34.183 35.25,34.183 C39.711,34.183 43.341,30.553 43.341,26.092 C43.341,24.044 42.57,22.177 41.312,20.75 L29.188,20.75 C27.929,22.177 27.158,24.044 27.158,26.092 L27.158,26.092 Z" id="Shape"></path>
                    <path d="M56.449,0 L4.051,0 C2.09,0 0.5,1.59 0.5,3.551 L0.5,55.949 C0.5,57.91 2.09,59.5 4.051,59.5 L56.449,59.5 C58.41,59.5 60,57.91 60,55.949 L60,3.551 C60,1.59 58.41,0 56.449,0 L56.449,0 Z M22.656,22.86 C24.515,20.754 27.226,19.416 30.25,19.416 C33.272,19.416 35.983,20.754 37.843,22.86 C39.42,24.648 40.385,26.986 40.385,29.551 C40.385,35.139 35.838,39.686 30.25,39.686 C24.661,39.686 20.114,35.139 20.114,29.551 C20.114,26.987 21.079,24.648 22.656,22.86 L22.656,22.86 Z M53.737,53.237 L6.763,53.237 L6.763,22.86 L15.293,22.86 C14.375,24.907 13.851,27.167 13.851,29.551 C13.851,38.594 21.208,45.949 30.25,45.949 C39.292,45.949 46.648,38.594 46.648,29.551 C46.648,27.167 46.124,24.906 45.206,22.86 L53.737,22.86 L53.737,53.237 L53.737,53.237 Z M53.737,12.858 C53.737,14.436 52.457,15.715 50.878,15.715 L47.144,15.715 C45.565,15.715 44.285,14.436 44.285,12.858 L44.285,9.121 C44.285,7.543 45.565,6.264 47.144,6.264 L50.878,6.264 C52.457,6.264 53.737,7.543 53.737,9.121 L53.737,12.858 L53.737,12.858 Z" id="Shape" fill="#FFFFFF"></path>
                </g>
            </g>
        </g>
    </g>
</svg>