<?xml version="1.0" encoding="UTF-8" standalone="no"?>
<svg width="46px" height="37px" viewBox="0 0 46 37" version="1.1" xmlns="http://www.w3.org/2000/svg" xmlns:xlink="http://www.w3.org/1999/xlink" xmlns:sketch="http://www.bohemiancoding.com/sketch/ns">
    <!-- Generator: Sketch 3.0.3 (7892) - http://www.bohemiancoding.com/sketch -->
    <title>Oval 11</title>
    <desc>Created with Sketch.</desc>
    <defs></defs>
    <g id="Welcome" stroke="none" stroke-width="1" fill="none" fill-rule="evenodd" sketch:type="MSPage">
        <g id="Desktop-HD-2" sketch:type="MSArtboardGroup" transform="translate(-129.000000, -2117.000000)" fill="#FFFFFF">
            <g id="Footer" sketch:type="MSLayerGroup" transform="translate(-3.000000, 2038.000000)">
                <g id="Sinistra" transform="translate(89.000000, 59.000000)" sketch:type="MSShapeGroup">
                    <g id="Social" transform="translate(1.000000, 0.000000)">
                        <path d="M65.1163423,30.9601395 C65.1021285,30.6371579 65.0805092,30.3161566 65.0516513,29.9972912 L65.0545745,29.9967895 C65.0185121,29.6694912 65,29.3369075 65,29 C65,24.0294373 69.0294373,20 74,20 C76.5046577,20 78.770351,21.0231281 80.4019412,22.6742457 L80.4019412,22.6742457 C81.7691993,22.5658753 83.8599189,22.0709742 86.5195314,20.4406738 C86.5195315,20.4406739 85.8389392,23.788101 82.3805589,25.7121992 C82.3833682,25.7193545 82.3861686,25.7265143 82.3889602,25.7336786 C84.2359616,25.2615576 85.1127877,25.1956842 88.0046387,24.0712891 C86.1177099,26.7143719 85.3069681,27.7366569 82.9991528,28.8752296 C82.999717,28.9167524 83,28.9583432 83,29 C83,29.1853258 82.9943985,29.3693433 82.9833555,29.5518925 L82.9833555,29.5518925 C82.9944209,29.8665634 83,30.1826302 83,30.5 C83,45.1355459 71.1355459,57 56.5,57 C51.3168387,57 46.4812316,55.5119437 42.3970861,52.9397386 C42.9261597,52.9796714 43.4607059,53 44,53 C48.7997821,53 53.2468699,51.3700954 56.811133,48.6372934 C50.2363794,48.9299442 47.5180664,43.2070915 47.5180664,42.154541 C49.6628418,42.4304199 51.3776855,42.355957 51.3776855,42.154541 C44.75,39.7141113 44.1677246,34.8358154 44.1677246,32.5905762 C45.9479981,33.5961914 48.1662599,33.890625 48.3862305,33.890625 C45.8278809,32.6252441 42.3566895,27.4404297 45.394043,21.2580566 C53.9055513,30.7725354 62.6327713,31.088173 65.1163423,30.9601395 Z" id="Oval-11"></path>
                    </g>
                </g>
            </g>
        </g>
    </g>
</svg>